<svg width="100%" height="100%" viewBox="0 0 24 24" version="1.1" xmlns="http://www.w3.org/2000/svg" xmlns:xlink="http://www.w3.org/1999/xlink" xml:space="preserve" xmlns:serif="http://www.serif.com/" style="fill-rule:evenodd;clip-rule:evenodd;stroke-linejoin:round;stroke-miterlimit:2;">
    <path d="M3,6.25C3,4.455 4.455,3 6.25,3L17.75,3C19.545,3 21,4.455 21,6.25L21,12.022C20.537,11.725 20.034,11.486 19.5,11.313L19.5,10L15.5,10L15.5,11.313C14.966,11.486 14.463,11.725 14,12.022L14,10L10,10L10,14L12.022,14C11.725,14.463 11.486,14.966 11.313,15.5L10,15.5L10,19.5L11.313,19.5C11.486,20.034 11.725,20.537 12.022,21L6.25,21C4.455,21 3,19.545 3,17.75L3,6.25ZM6.25,4.5C5.284,4.5 4.5,5.284 4.5,6.25L4.5,8.5L8.5,8.5L8.5,4.5L6.25,4.5ZM4.5,10L4.5,14L8.5,14L8.5,10L4.5,10ZM14,4.5L10,4.5L10,8.5L14,8.5L14,4.5ZM15.5,8.5L19.5,8.5L19.5,6.25C19.5,5.284 18.716,4.5 17.75,4.5L15.5,4.5L15.5,8.5ZM4.5,15.5L4.5,17.75C4.5,18.716 5.284,19.5 6.25,19.5L8.5,19.5L8.5,15.5L4.5,15.5Z" style="fill:rgb(82,96,105);"/>
    <path d="M23,17.5C23,20.538 20.538,23 17.5,23C14.462,23 12,20.538 12,17.5C12,14.462 14.462,12 17.5,12C20.538,12 23,14.462 23,17.5ZM20.503,18C20.779,18 21.003,17.776 21.003,17.5C21.003,17.224 20.779,17 20.503,17L14.496,17C14.22,17 13.996,17.224 13.996,17.5C13.996,17.776 14.22,18 14.496,18L20.503,18Z" style="fill:rgb(202,69,72);"/>
</svg>