<svg width="100%" height="100%" viewBox="0 0 24 24" version="1.1" xmlns="http://www.w3.org/2000/svg" xmlns:xlink="http://www.w3.org/1999/xlink" xml:space="preserve" xmlns:serif="http://www.serif.com/" style="fill-rule:evenodd;clip-rule:evenodd;stroke-linejoin:round;stroke-miterlimit:2;">
    <path d="M3,6.25C3,4.455 4.455,3 6.25,3L17.75,3C19.545,3 21,4.455 21,6.25L21,17.75C21,19.545 19.545,21 17.75,21L12.475,21L10.975,19.5L14,19.5L14,15.5L10.909,15.5C10.632,13.991 9.739,12.697 8.5,11.889L8.5,10L4.5,10L4.5,11.091C3.969,11.188 3.466,11.362 3,11.6L3,6.25ZM19.5,10L15.5,10L15.5,14L19.5,14L19.5,10ZM15.5,19.5L17.75,19.5C18.716,19.5 19.5,18.716 19.5,17.75L19.5,15.5L15.5,15.5L15.5,19.5ZM15.5,8.5L19.5,8.5L19.5,6.25C19.5,5.284 18.716,4.5 17.75,4.5L15.5,4.5L15.5,8.5ZM14,4.5L10,4.5L10,8.5L14,8.5L14,4.5ZM6.25,4.5C5.284,4.5 4.5,5.284 4.5,6.25L4.5,8.5L8.5,8.5L8.5,4.5L6.25,4.5Z" style="fill:rgb(82,96,105);"/>
    <path d="M10.4,14C10.282,13.769 10.148,13.548 10,13.337L10,10L14,10L14,14L10.4,14Z" style="fill:rgb(239,72,35);"/>
    <path d="M5.5,21C6.472,21 7.372,20.692 8.107,20.168L10.72,22.78C11.013,23.073 11.487,23.073 11.78,22.78C12.073,22.487 12.073,22.013 11.78,21.72L9.168,19.107C9.692,18.372 10,17.472 10,16.5C10,14.015 7.985,12 5.5,12C3.015,12 1,14.015 1,16.5C1,18.985 3.015,21 5.5,21ZM5.5,19.5C3.843,19.5 2.5,18.157 2.5,16.5C2.5,14.843 3.843,13.5 5.5,13.5C7.157,13.5 8.5,14.843 8.5,16.5C8.5,18.157 7.157,19.5 5.5,19.5Z" style="fill:rgb(0,103,223);"/>
</svg>