<svg width="100%" height="100%" viewBox="0 0 24 24" version="1.1" xmlns="http://www.w3.org/2000/svg" xmlns:xlink="http://www.w3.org/1999/xlink" xml:space="preserve" xmlns:serif="http://www.serif.com/" style="fill-rule:evenodd;clip-rule:evenodd;stroke-linejoin:round;stroke-miterlimit:2;">
    <path d="M6.25,3C4.455,3 3,4.455 3,6.25L3,17.75C3,19.545 4.455,21 6.25,21L17.75,21C19.545,21 21,19.545 21,17.75L21,6.25C21,4.455 19.545,3 17.75,3L6.25,3ZM19.5,8.5L9.25,8.5C8.836,8.5 8.5,8.836 8.5,9.25L8.5,19.5L6.25,19.5C5.284,19.5 4.5,18.716 4.5,17.75L4.5,6.25C4.5,5.284 5.284,4.5 6.25,4.5L17.75,4.5C18.716,4.5 19.5,5.284 19.5,6.25L19.5,8.5ZM14,10L14,14L10,14L10,10L14,10ZM15.5,14L15.5,10L19.5,10L19.5,14L15.5,14ZM14,15.5L14,19.5L10,19.5L10,15.5L14,15.5ZM15.5,19.5L15.5,15.5L19.5,15.5L19.5,17.75C19.5,18.716 18.716,19.5 17.75,19.5L15.5,19.5Z" style="fill:rgb(82,96,105);fill-rule:nonzero;"/>
</svg>