<svg width="100%" height="100%" viewBox="0 0 24 24" version="1.1" xmlns="http://www.w3.org/2000/svg" xmlns:xlink="http://www.w3.org/1999/xlink" xml:space="preserve" xmlns:serif="http://www.serif.com/" style="fill-rule:evenodd;clip-rule:evenodd;stroke-linejoin:round;stroke-miterlimit:2;">
    <path d="M4,4L20,4C21.097,4 22,4.903 22,6L22,18C22,19.097 21.097,20 20,20L4,20C2.903,20 2,19.097 2,18L2,6C2,4.903 2.903,4 4,4ZM4,6L4,18L11,18L11,6L4,6ZM14.25,6L13,6L13,18L15.58,18L18.37,18L20,18L20,6L18.76,6L14.25,6Z" style="fill:rgb(82,96,105);"/>
    <g transform="matrix(1,0,0,1,-0.086137,0.000133)">
        <path d="M18.37,18L15.58,18L15.57,17.14L16.54,17.13C16.54,17.13 17.45,16.97 17.46,16.08C17.5,15.08 16.65,15.08 16.5,15.08C16.37,15.08 15.43,15.13 15.43,15.95L13.91,15.95C13.91,15.95 13.95,13.89 16.5,13.89C19.1,13.89 18.96,15.91 18.96,15.91C18.96,15.91 19,17.16 17.85,17.63L18.37,18ZM16.5,6L18.76,6C19,6.54 18.95,7.07 18.95,7.13C18.88,7.8 18.41,8.5 18.24,8.75L15.91,11.3L19.23,11.28L19.24,12.5L14.04,12.47L14,11.47C14,11.47 17.05,8.24 17.2,7.95C17.34,7.67 17.91,6 16.5,6ZM14.25,6L16.5,6C15.27,6.05 15.41,7.3 15.41,7.3L13.87,7.31C13.87,7.31 13.88,6.65 14.25,6Z" style="fill:rgb(0,103,223);"/>
    </g>
    <g transform="matrix(1,0,0,1,-0.061454,-0.205)">
        <path d="M8.92,16L7.42,16L7.42,10.2L5.62,10.76L5.62,9.53L8.76,8.41L8.92,8.41L8.92,16Z" style="fill:rgb(0,103,223);"/>
    </g>
</svg>