<svg width="100%" height="100%" viewBox="0 0 24 24" version="1.1" xmlns="http://www.w3.org/2000/svg" xmlns:xlink="http://www.w3.org/1999/xlink" xml:space="preserve" xmlns:serif="http://www.serif.com/" style="fill-rule:evenodd;clip-rule:evenodd;stroke-linejoin:round;stroke-miterlimit:2;">
    <path d="M6.75,3C4.127,3 2,5.127 2,7.75L2,14.75C2,15.993 3.007,17 4.25,17L4.5,17L4.5,15.5L4.25,15.5C3.836,15.5 3.5,15.164 3.5,14.75L3.5,7.75C3.5,5.955 4.955,4.5 6.75,4.5L16.75,4.5C17.164,4.5 17.5,4.836 17.5,5.25L17.5,5.5L19,5.5L19,5.25C19,4.007 17.993,3 16.75,3L6.75,3ZM19.254,6.5L19.75,6.5C20.941,6.5 21.916,7.425 21.995,8.596L22,8.75L22,9.754C22,10.168 21.664,10.504 21.25,10.504C20.87,10.504 20.556,10.221 20.507,9.855L20.5,9.754L20.5,8.75C20.5,8.37 20.218,8.057 19.852,8.007L19.75,8L19.254,8C18.84,8 18.504,7.664 18.504,7.25C18.504,6.87 18.786,6.557 19.152,6.507L19.254,6.5ZM6.25,11.501C6.63,11.501 6.943,11.783 6.993,12.149L7,12.251L7,14.745C7,15.159 6.664,15.495 6.25,15.495C5.87,15.495 5.557,15.213 5.507,14.847L5.5,14.745L5.5,12.251C5.5,11.837 5.836,11.501 6.25,11.501ZM6.993,17.143C6.943,16.777 6.63,16.495 6.25,16.495C5.836,16.495 5.5,16.831 5.5,17.245L5.5,18.25L5.505,18.404C5.584,19.575 6.559,20.5 7.75,20.5L8.25,20.5L8.352,20.493C8.718,20.444 9,20.13 9,19.75C9,19.336 8.664,19 8.25,19L7.75,19L7.648,18.993C7.282,18.944 7,18.63 7,18.25L7,17.245L6.993,17.143ZM22,17.245C22,16.831 21.664,16.495 21.25,16.495C20.836,16.495 20.5,16.831 20.5,17.245L20.5,18.25C20.5,18.664 20.164,19 19.75,19L18.747,19C18.333,19 17.997,19.336 17.997,19.75C17.997,20.164 18.333,20.5 18.747,20.5L19.75,20.5C20.993,20.5 22,19.493 22,18.25L22,17.245ZM14.753,19L16.248,19C16.662,19 16.998,19.336 16.998,19.75C16.998,20.13 16.716,20.444 16.35,20.493L16.248,20.5L14.753,20.5C14.339,20.5 14.003,20.164 14.003,19.75C14.003,19.37 14.285,19.056 14.651,19.007L14.753,19ZM12.246,19L10.751,19L10.649,19.007C10.283,19.056 10.001,19.37 10.001,19.75C10.001,20.164 10.336,20.5 10.751,20.5L12.246,20.5L12.348,20.493C12.714,20.444 12.996,20.13 12.996,19.75C12.996,19.336 12.661,19 12.246,19ZM21.993,12.149C21.944,11.783 21.63,11.501 21.25,11.501C20.836,11.501 20.5,11.837 20.5,12.251L20.5,14.745L20.507,14.847C20.556,15.213 20.87,15.495 21.25,15.495C21.664,15.495 22,15.159 22,14.745L22,12.251L21.993,12.149ZM9.503,7.25C9.503,6.836 9.167,6.5 8.753,6.5L7.75,6.5C6.507,6.5 5.5,7.507 5.5,8.75L5.5,9.754C5.5,10.168 5.836,10.504 6.25,10.504C6.664,10.504 7,10.168 7,9.754L7,8.75C7,8.336 7.336,8 7.75,8L8.753,8C9.167,8 9.503,7.664 9.503,7.25ZM15.249,6.5L16.752,6.5C17.166,6.5 17.502,6.836 17.502,7.25C17.502,7.63 17.22,7.943 16.854,7.993L16.752,8L15.249,8C14.835,8 14.499,7.664 14.499,7.25C14.499,6.87 14.781,6.557 15.147,6.507L15.249,6.5ZM12.745,6.5L11.25,6.5L11.148,6.507C10.782,6.557 10.5,6.87 10.5,7.25C10.5,7.664 10.836,8 11.25,8L12.745,8L12.847,7.993C13.213,7.943 13.495,7.63 13.495,7.25C13.495,6.836 13.159,6.5 12.745,6.5Z" style="fill:rgb(82,96,105);fill-rule:nonzero;"/>
</svg>