<svg width="100%" height="100%" viewBox="0 0 24 24" version="1.1" xmlns="http://www.w3.org/2000/svg" xmlns:xlink="http://www.w3.org/1999/xlink" xml:space="preserve" xmlns:serif="http://www.serif.com/" style="fill-rule:evenodd;clip-rule:evenodd;stroke-linejoin:round;stroke-miterlimit:2;">
    <path d="M3,6.25C3,4.455 4.455,3 6.25,3L17.75,3C19.545,3 21,4.455 21,6.25L21,15.953L19.238,14L19.5,14L19.5,10L15.5,10L15.5,11.019C15.374,11.037 15.249,11.069 15.127,11.116C14.451,11.376 14.005,12.025 14.005,12.749L14,12.75L14,10L10,10L10,14L14.004,14L14.003,15.5L10,15.5L10,19.5L14.001,19.5L14.001,21L6.25,21C4.455,21 3,19.545 3,17.75L3,6.25ZM4.5,15.5L4.5,17.75C4.5,18.716 5.284,19.5 6.25,19.5L8.5,19.5L8.5,15.5L4.5,15.5ZM15.5,8.5L19.5,8.5L19.5,6.25C19.5,5.284 18.716,4.5 17.75,4.5L15.5,4.5L15.5,8.5ZM6.25,4.5C5.284,4.5 4.5,5.284 4.5,6.25L4.5,8.5L8.5,8.5L8.5,4.5L6.25,4.5ZM14,4.5L10,4.5L10,8.5L14,8.5L14,4.5ZM4.5,10L4.5,14L8.5,14L8.5,10L4.5,10Z" style="fill:rgb(82,96,105);"/>
    <path d="M15.486,12.05C15.775,11.939 16.104,12.017 16.312,12.248L22.677,19.305C22.897,19.55 22.932,19.91 22.763,20.193C22.593,20.476 22.259,20.615 21.939,20.535L18.402,19.657L16.372,22.672C16.188,22.945 15.846,23.066 15.531,22.97C15.215,22.873 15,22.582 15,22.252L15.005,12.75C15.005,12.439 15.196,12.161 15.486,12.05Z" style="fill:rgb(86,169,114);"/>
</svg>