<svg width="100%" height="100%" viewBox="0 0 26 26" version="1.1" xmlns="http://www.w3.org/2000/svg" xmlns:xlink="http://www.w3.org/1999/xlink" xml:space="preserve" xmlns:serif="http://www.serif.com/" style="fill-rule:evenodd;clip-rule:evenodd;stroke-linejoin:round;stroke-miterlimit:2;">
    <g transform="matrix(1,0,0,1,-3,-3)">
        <path d="M3,7.5C3,5.015 5.015,3 7.5,3L24.5,3C26.985,3 29,5.015 29,7.5L29,24.5C29,26.985 26.985,29 24.5,29L7.5,29C5.015,29 3,26.985 3,24.5L3,7.5ZM7.5,5C6.119,5 5,6.119 5,7.5L5,11L11,11L11,5L7.5,5ZM5,13L5,19L11,19L11,13L5,13ZM13,13L13,19L19,19L19,13L13,13ZM21,13L21,19L27,19L27,13L21,13ZM19,21L13,21L13,27L19,27L19,21ZM21,27L24.5,27C25.881,27 27,25.881 27,24.5L27,21L21,21L21,27ZM21,11L27,11L27,7.5C27,6.119 25.881,5 24.5,5L21,5L21,11ZM19,5L13,5L13,11L19,11L19,5ZM5,21L5,24.5C5,25.881 6.119,27 7.5,27L11,27L11,21L5,21Z" style="fill:rgb(82,96,105);fill-rule:nonzero;"/>
    </g>
</svg>