<svg width="100%" height="100%" viewBox="0 0 24 24" version="1.1" xmlns="http://www.w3.org/2000/svg" xmlns:xlink="http://www.w3.org/1999/xlink" xml:space="preserve" xmlns:serif="http://www.serif.com/" style="fill-rule:evenodd;clip-rule:evenodd;stroke-linejoin:round;stroke-miterlimit:2;">
    <path d="M3,6.25C3,4.455 4.455,3 6.25,3L17.749,3C19.544,3 20.998,4.455 20.998,6.25L20.998,11.011C20.492,10.968 19.977,11.041 19.498,11.232L19.498,9.999L15.499,9.999L15.499,13.999L16.354,13.999L13.999,16.354L13.999,15.499L9.999,15.499L9.999,19.498L11.54,19.498L11.52,19.575L11.164,20.998L6.25,20.998C4.455,20.998 3,19.544 3,17.749L3,6.25ZM15.499,8.5L19.498,8.5L19.498,6.25C19.498,5.283 18.715,4.5 17.749,4.5L15.499,4.5L15.499,8.5ZM6.25,4.5C5.283,4.5 4.5,5.283 4.5,6.25L4.5,8.5L8.5,8.5L8.5,4.5L6.25,4.5ZM4.5,9.999L4.5,13.999L8.5,13.999L8.5,9.999L4.5,9.999ZM13.999,4.5L9.999,4.5L9.999,8.5L13.999,8.5L13.999,4.5ZM9.999,9.999L9.999,13.999L13.999,13.999L13.999,9.999L9.999,9.999ZM4.5,15.499L4.5,17.749C4.5,18.715 5.283,19.498 6.25,19.498L8.5,19.498L8.5,15.499L4.5,15.499Z" style="fill:rgb(82,96,105);"/>
    <path d="M19.765,12.205C19.674,12.247 19.585,12.295 19.498,12.349C19.357,12.438 19.222,12.545 19.098,12.669L13.197,18.57C12.932,18.835 12.726,19.152 12.592,19.498C12.551,19.602 12.517,19.709 12.49,19.818L12.033,21.648C11.834,22.445 12.555,23.166 13.351,22.967L15.181,22.509C15.653,22.391 16.085,22.147 16.429,21.803L22.331,15.901C23.223,15.008 23.223,13.561 22.331,12.669C21.679,12.017 20.732,11.841 19.92,12.141L19.881,12.156C19.842,12.171 19.803,12.188 19.765,12.205Z" style="fill:rgb(86,169,114);"/>
</svg>