<svg width="100%" height="100%" viewBox="0 0 16 16" version="1.1" xmlns="http://www.w3.org/2000/svg" xmlns:xlink="http://www.w3.org/1999/xlink" xml:space="preserve" xmlns:serif="http://www.serif.com/" style="fill-rule:evenodd;clip-rule:evenodd;stroke-linejoin:round;stroke-miterlimit:2;">
    <path d="M14.414,3.207L12.793,1.586C12.421,1.213 11.905,1 11.379,1L3,1C1.897,1 1,1.897 1,3L1,13C1,14.103 1.897,15 3,15L13,15C14.103,15 15,14.103 15,13L15,4.621C15,4.095 14.787,3.579 14.414,3.207ZM9,2L9,3.5C9,3.776 8.776,4 8.5,4L6.5,4C6.224,4 6,3.776 6,3.5L6,2L9,2ZM5,14L5,9.5C5,9.224 5.224,9 5.5,9L10.5,9C10.776,9 11,9.224 11,9.5L11,14L5,14ZM14,13C14,13.551 13.551,14 13,14L12,14L12,9.5C12,8.673 11.327,8 10.5,8L5.5,8C4.673,8 4,8.673 4,9.5L4,14L3,14C2.449,14 2,13.551 2,13L2,3C2,2.449 2.449,2 3,2L5,2L5,3.5C5,4.327 5.673,5 6.5,5L8.5,5C9.327,5 10,4.327 10,3.5L10,2L11.379,2C11.642,2 11.9,2.107 12.086,2.293L13.707,3.914C13.893,4.1 14,4.358 14,4.621L14,13Z" style="fill:rgb(82,96,105);fill-rule:nonzero;"/>
</svg>