<svg width="100%" height="100%" viewBox="0 0 24 24" version="1.1" xmlns="http://www.w3.org/2000/svg" xmlns:xlink="http://www.w3.org/1999/xlink" xml:space="preserve" xmlns:serif="http://www.serif.com/" style="fill-rule:evenodd;clip-rule:evenodd;stroke-linejoin:round;stroke-miterlimit:2;">
    <g transform="matrix(0.49115,0,0,0.49115,0.703543,0.703543)">
        <g transform="matrix(1.916667,0,0,1.916667,0,0)">
            <path d="M5.6,1.55C5.134,1.55 4.75,1.934 4.75,2.4L4.75,4.85L12,4.85C13.289,4.85 14.35,5.911 14.35,7.2L14.35,16.8C14.35,18.089 13.289,19.15 12,19.15L4.75,19.15L4.75,21.6C4.75,22.07 5.13,22.45 5.6,22.45L21.6,22.45C22.07,22.45 22.45,22.07 22.45,21.6L22.45,2.4C22.45,1.934 22.066,1.55 21.6,1.55L5.6,1.55ZM3.25,19.15L3.25,21.6C3.25,22.889 4.311,23.95 5.6,23.95L21.6,23.95C22.889,23.95 23.95,22.889 23.95,21.6L23.95,2.4C23.95,1.111 22.889,0.05 21.6,0.05L5.6,0.05C4.311,0.05 3.25,1.111 3.25,2.4L3.25,4.85L2.4,4.85C1.111,4.85 0.05,5.911 0.05,7.2L0.05,16.8C0.05,18.089 1.111,19.15 2.4,19.15L3.25,19.15ZM2.4,6.35C1.934,6.35 1.55,6.734 1.55,7.2L1.55,16.8C1.55,17.27 1.93,17.65 2.4,17.65L12,17.65C12.47,17.65 12.85,17.27 12.85,16.8L12.85,7.2C12.85,6.734 12.466,6.35 12,6.35L2.4,6.35ZM6.14,12L3.47,9.33L4.53,8.27L7.2,10.94L9.87,8.27L10.93,9.33L8.26,12L10.93,14.67L9.87,15.73L7.2,13.06L4.53,15.73L3.47,14.67L6.14,12Z" style="fill:rgb(82,96,105);"/>
        </g>
        <g transform="matrix(1.916667,0,0,1.916667,0,0)">
            <path d="M6.14,12L3.47,9.33L4.53,8.27L7.2,10.94L9.87,8.27L10.93,9.33L8.26,12L10.93,14.67L9.87,15.73L7.2,13.06L4.53,15.73L3.47,14.67L6.14,12Z" style="fill:rgb(86,169,114);"/>
        </g>
    </g>
</svg>