<svg width="100%" height="100%" viewBox="0 0 24 24" version="1.1" xmlns="http://www.w3.org/2000/svg" xmlns:xlink="http://www.w3.org/1999/xlink" xml:space="preserve" xmlns:serif="http://www.serif.com/" style="fill-rule:evenodd;clip-rule:evenodd;stroke-linejoin:round;stroke-miterlimit:2;">
    <path d="M3,6.25C3,4.455 4.455,3 6.25,3L17.75,3C19.545,3 21,4.455 21,6.25L21,17.75C21,19.545 19.545,21 17.75,21L6.25,21C4.455,21 3,19.545 3,17.75L3,6.25ZM6.25,4.5C5.284,4.5 4.5,5.284 4.5,6.25L4.5,8.5L8.5,8.5L8.5,4.5L6.25,4.5ZM4.5,10L4.5,14L8.5,14L8.5,10L4.5,10ZM15.5,10L15.5,14L19.5,14L19.5,10L15.5,10ZM14,15.5L10,15.5L10,19.5L14,19.5L14,15.5ZM15.5,19.5L17.75,19.5C18.716,19.5 19.5,18.716 19.5,17.75L19.5,15.5L15.5,15.5L15.5,19.5ZM15.5,8.5L19.5,8.5L19.5,6.25C19.5,5.284 18.716,4.5 17.75,4.5L15.5,4.5L15.5,8.5ZM14,4.5L10,4.5L10,8.5L14,8.5L14,4.5ZM4.5,15.5L4.5,17.75C4.5,18.716 5.284,19.5 6.25,19.5L8.5,19.5L8.5,15.5L4.5,15.5Z" style="fill:rgb(82,96,105);fill-rule:nonzero;"/>
    <g transform="matrix(1.75,0,0,1.75,-9,-9)">
        <rect x="10" y="10" width="4" height="4" style="fill:rgb(86,169,114);"/>
    </g>
</svg>