<svg width="100%" height="100%" viewBox="0 0 24 24" version="1.1" xmlns="http://www.w3.org/2000/svg" xmlns:xlink="http://www.w3.org/1999/xlink" xml:space="preserve" xmlns:serif="http://www.serif.com/" style="fill-rule:evenodd;clip-rule:evenodd;stroke-linejoin:round;stroke-miterlimit:2;">
    <path d="M6.25,3C4.455,3 3,4.455 3,6.25L3,17.75C3,19.545 4.455,21 6.25,21L11.166,21L11.522,19.577L11.542,19.5L10,19.5L10,15.5L14,15.5L14,16.356L16.356,14L15.5,14L15.5,10L19.5,10L19.5,11.233C19.979,11.042 20.494,10.969 21,11.012L21,6.25C21,4.455 19.545,3 17.75,3L6.25,3ZM19.5,8.5L15.5,8.5L15.5,4.5L17.75,4.5C18.716,4.5 19.5,5.284 19.5,6.25L19.5,8.5ZM4.5,6.25C4.5,5.284 5.284,4.5 6.25,4.5L8.5,4.5L8.5,8.5L4.5,8.5L4.5,6.25ZM10,4.5L14,4.5L14,8.5L10,8.5L10,4.5ZM4.5,14L4.5,10L8.5,10L8.5,14L4.5,14ZM4.5,17.75L4.5,15.5L8.5,15.5L8.5,19.5L6.25,19.5C5.284,19.5 4.5,18.716 4.5,17.75Z" style="fill:rgb(82,96,105);"/>
    <path d="M19.1,12.669L13.197,18.572C12.853,18.916 12.609,19.347 12.491,19.819L12.033,21.65C11.834,22.446 12.556,23.167 13.352,22.968L15.182,22.511C15.655,22.393 16.086,22.148 16.43,21.804L22.332,15.902C23.225,15.009 23.225,13.562 22.332,12.669C21.44,11.777 19.992,11.777 19.1,12.669Z" style="fill:rgb(86,169,114);"/>
    <rect x="10" y="10" width="4" height="4" style="fill:rgb(0,103,223);"/>
</svg>